<svg xmlns="http://www.w3.org/2000/svg" viewBox="0 0 320 320" role="img" aria-label="Meadow avatar"><defs><linearGradient id="bg" x1="0" y1="0" x2="1" y2="1"><stop stop-color="#dcfce7"/><stop offset="1" stop-color="#4ade80"/></linearGradient></defs><rect width="320" height="320" rx="160" fill="url(#bg)"/><circle cx="160" cy="143" r="73" fill="#e7a977"/><path d="M88 139c-5-74 24-108 73-108 44 0 76 34 72 108-22-22-43-32-72-32-30 0-50 10-73 32Z" fill="#7c3aed"/><path d="M87 124c0-23 10-40 24-51M233 124c0-23-10-40-24-51" fill="none" stroke="#a78bfa" stroke-linecap="round" stroke-width="13"/><circle cx="134" cy="146" r="7" fill="#37234f"/><circle cx="186" cy="146" r="7" fill="#37234f"/><path d="M139 175c13 10 28 10 41 0" fill="none" stroke="#ad5b5a" stroke-linecap="round" stroke-width="6"/><path d="M64 319c10-55 45-82 96-82s86 27 96 82" fill="#16a34a"/><path d="M124 231c14 16 58 16 72 0v30c-20 18-52 18-72 0Z" fill="#e7a977"/></svg>