<svg xmlns="http://www.w3.org/2000/svg" viewBox="0 0 320 320" role="img" aria-label="Rose avatar"><defs><linearGradient id="bg" x1="0" y1="0" x2="1" y2="1"><stop stop-color="#f5d0fe"/><stop offset="1" stop-color="#c084fc"/></linearGradient></defs><rect width="320" height="320" rx="160" fill="url(#bg)"/><circle cx="160" cy="143" r="73" fill="#f3c19d"/><path d="M88 143c-5-68 25-105 72-105 49 0 77 37 71 105-20-21-41-31-71-31-30 0-52 10-72 31Z" fill="#9d174d"/><path d="M102 85c18-20 38-29 58-29 23 0 44 10 58 29" fill="none" stroke="#f9a8d4" stroke-linecap="round" stroke-width="13"/><circle cx="134" cy="147" r="7" fill="#500724"/><circle cx="186" cy="147" r="7" fill="#500724"/><path d="M139 176c13 10 28 10 41 0" fill="none" stroke="#ad5b59" stroke-linecap="round" stroke-width="6"/><path d="M65 319c10-55 44-82 95-82s85 27 95 82" fill="#a21caf"/><path d="M124 231c14 17 58 17 72 0v30c-20 18-52 18-72 0Z" fill="#f3c19d"/></svg>